first trial
nRows=38
nColumns=38

# SIMM Motion File Header:
name Sujet_01_velo_80.mvnx
datacolumns 38
datarows 38
otherdata 1
range 8.2000 8.8160
endheader
time pelvis_tilt  pelvis_list  pelvis_rotation  pelvis_tx  pelvis_ty  pelvis_tz  hip_flexion_r  hip_adduction_r  hip_rotation_r  knee_angle_r  ankle_angle_r  subtalar_angle_r  mtp_angle_r  hip_flexion_l  hip_adduction_l  hip_rotation_l  knee_angle_l  ankle_angle_l  subtalar_angle_l  mtp_angle_l  lumbar_extension  lumbar_bending  lumbar_rotation  arm_flex_r  arm_add_r  arm_rot_r  elbow_flex_r  pro_sup_r  wrist_flex_r  wrist_dev_r  arm_flex_l  arm_add_l  arm_rot_l  elbow_flex_l  pro_sup_l  wrist_flex_l  wrist_dev_l
8.2000	-7.7306	3.8216	-17.4371	0.0000	1.2500	-0.0000	58.1534	-14.5234	-4.5979	87.0891	-1.6851	-13.4746	-0.0000	63.2658	-7.5252	-9.4878	58.0153	-7.9314	15.3000	0.0000	-20.0194	1.6938	-2.7049	94.2757	-14.3905	48.8024	6.5791	116.1856	-42.8980	-8.4902	85.2955	-19.5011	52.5266	7.9835	113.0704	-22.2205	2.8516	
8.2160	-7.7992	3.7809	-17.9474	0.0000	1.2500	-0.0000	61.1035	-14.1682	-3.6216	91.1392	0.1681	-13.6014	-0.0000	59.3174	-8.0790	-10.3549	53.4126	-9.4037	15.5429	-0.0000	-19.9718	1.5572	-2.3304	94.6774	-14.2474	48.6984	6.4638	116.6894	-42.8395	-8.5797	85.3432	-19.6592	52.5823	7.8125	113.1632	-22.2032	2.6326	
8.2330	-7.9009	3.7619	-18.4353	0.0000	1.2500	-0.0000	64.1622	-13.7683	-2.6061	94.8703	2.0599	-13.9474	0.0000	55.4270	-8.5851	-11.1250	48.9622	-11.1542	15.5973	0.0000	-19.8991	1.4118	-1.9449	95.0516	-14.1182	48.5825	6.3404	117.1817	-42.7852	-8.6544	85.3223	-19.8398	52.6527	7.7113	113.2407	-22.1417	2.4259	
8.2500	-7.9882	3.6986	-18.8685	0.0000	1.2500	-0.0000	67.1961	-13.3730	-1.6203	98.0612	3.7322	-14.3744	-0.0000	51.8765	-9.0502	-11.9292	45.0811	-13.0927	15.7995	0.0000	-19.8411	1.3052	-1.6007	95.3856	-13.9653	48.4730	6.2138	117.5849	-42.7000	-8.6712	85.2628	-20.0362	52.7435	7.6800	113.2570	-22.1028	2.2619	
8.2660	-8.0433	3.5530	-19.2357	0.0000	1.2500	-0.0000	70.2048	-13.0171	-0.6585	100.6980	5.1928	-14.9015	-0.0000	48.7383	-9.5212	-12.8393	41.8315	-15.4085	16.3868	-0.0000	-19.8024	1.2597	-1.3173	95.6434	-13.7457	48.3799	6.0872	117.8719	-42.5631	-8.6136	85.1526	-20.2734	52.8813	7.7424	113.1740	-22.0998	2.1491	
8.2830	-8.0832	3.3636	-19.5479	0.0000	1.2500	-0.0000	73.1945	-12.6816	0.2849	102.7940	6.4275	-15.4821	0.0000	45.9426	-9.9785	-13.7654	39.1397	-17.8736	17.0925	0.0000	-19.7789	1.2525	-1.0756	95.8600	-13.5023	48.2921	5.9580	118.0700	-42.3954	-8.4975	85.0036	-20.5261	53.0391	7.8744	113.0284	-22.1191	2.0788	
8.3000	-8.1118	3.1798	-19.8069	0.0000	1.2500	-0.0000	76.0454	-12.3519	1.1503	104.1688	7.1516	-15.8973	0.0000	43.5634	-10.3388	-14.5810	37.2150	-19.7998	17.5517	-0.0000	-19.7977	1.2623	-0.8708	96.1297	-13.3257	48.1968	5.8231	118.1837	-42.2244	-8.3290	84.8822	-20.7128	53.1431	8.0028	112.8864	-22.1859	2.0557	
8.3160	-8.1251	3.0164	-19.9908	0.0000	1.2500	-0.0000	78.8246	-12.0303	1.9335	104.7308	7.1748	-16.0946	-0.0000	41.5865	-10.5747	-15.2523	36.0765	-20.9931	17.6676	0.0000	-19.8783	1.2929	-0.7048	96.5202	-13.2753	48.0744	5.6851	118.2179	-42.0667	-8.0956	84.8167	-20.7716	53.1172	8.0948	112.7887	-22.3141	2.1006	
8.3330	-8.1278	2.8588	-20.1210	0.0000	1.2500	-0.0000	81.4676	-11.7305	2.6548	104.5700	6.6987	-16.1694	-0.0000	40.0335	-10.7504	-15.7853	35.6911	-21.6903	17.6041	-0.0000	-20.0014	1.3396	-0.5754	96.9656	-13.2905	47.9474	5.5427	118.1676	-41.9064	-7.8094	84.7787	-20.7645	53.0375	8.1830	112.6950	-22.4896	2.1921	
8.3500	-8.1372	2.7108	-20.2647	0.0000	1.2500	-0.0000	83.6572	-11.4634	3.2920	103.7779	6.0283	-16.1358	0.0000	39.0340	-10.9252	-16.1081	36.1931	-21.8846	17.4270	-0.0000	-20.1357	1.3683	-0.4723	97.3589	-13.2833	47.8660	5.3862	118.0222	-41.7219	-7.5134	84.7494	-20.7960	53.0583	8.2915	112.5505	-22.6961	2.2711	
8.3660	-8.1654	2.5580	-20.4329	0.0000	1.2500	-0.0000	85.3806	-11.2449	3.9023	102.3391	5.1252	-15.9443	0.0000	38.6795	-11.1092	-16.1974	37.7340	-21.4075	17.0737	0.0000	-20.2817	1.3796	-0.3996	97.6599	-13.2195	47.8373	5.2104	117.7520	-41.5049	-7.2024	84.7143	-20.9062	53.2773	8.4394	112.2962	-22.9499	2.3170	
8.3830	-8.2000	2.4146	-20.6146	0.0000	1.2500	-0.0000	86.6555	-11.0765	4.4427	100.2717	4.0206	-15.6387	-0.0000	38.8802	-11.3066	-16.0654	40.1634	-20.4314	16.5963	0.0000	-20.4388	1.3727	-0.3534	97.9079	-13.1347	47.8524	5.0194	117.3866	-41.2642	-6.8815	84.6882	-21.0555	53.5967	8.6063	111.9912	-23.2347	2.3508	
8.4000	-8.2220	2.3284	-20.8432	0.0000	1.2500	-0.0000	87.2121	-10.9565	4.7415	97.7187	3.1198	-15.3456	0.0000	39.4930	-11.5619	-15.6972	43.1816	-19.4561	16.2373	0.0000	-20.5735	1.3112	-0.3116	98.1144	-13.0470	47.9353	4.8167	117.0036	-41.0037	-6.6097	84.6966	-21.2283	53.8780	8.7587	111.7577	-23.4856	2.3765	
8.4160	-8.2359	2.3178	-21.1700	0.0000	1.2500	-0.0000	86.9505	-10.8550	4.7958	94.6611	2.4800	-15.1120	-0.0000	40.5415	-11.9125	-14.9797	46.8470	-18.6017	16.0616	0.0000	-20.6732	1.1706	-0.2563	98.3046	-12.9771	48.1603	4.5947	116.6055	-40.7128	-6.4211	84.7639	-21.4397	54.0451	8.8994	111.6585	-23.6946	2.3936	
8.4330	-8.2379	2.3644	-21.5435	0.0000	1.2500	-0.0000	85.9720	-10.8101	4.6234	91.1159	2.0452	-14.8580	-0.0000	42.0067	-12.3047	-14.0116	51.1283	-17.7449	16.0086	-0.0000	-20.7496	0.9755	-0.2060	98.4533	-12.9043	48.4527	4.3619	116.1904	-40.4011	-6.2834	84.8662	-21.6738	54.1750	9.0267	111.6301	-23.8698	2.4027	
8.4500	-8.1951	2.4605	-21.8434	0.0000	1.2500	-0.0000	84.3057	-10.9160	4.0774	87.2779	2.0507	-14.5219	0.0000	43.6804	-12.6514	-13.1045	55.5943	-17.0219	16.1508	0.0000	-20.8061	0.7631	-0.1930	98.4970	-12.7843	48.6130	4.1457	115.8287	-40.1026	-6.1554	84.9561	-21.8683	54.3580	9.1012	111.6049	-23.9708	2.4089	
8.4660	-8.0809	2.6193	-22.0661	0.0000	1.2500	-0.0000	81.8528	-11.1677	3.0284	83.1980	2.8114	-14.0613	-0.0000	45.4867	-12.9415	-12.3628	60.1535	-16.5509	16.5557	-0.0000	-20.8433	0.5283	-0.2295	98.4136	-12.5497	48.5457	3.9422	115.5286	-39.7959	-5.9913	85.0303	-22.0282	54.6821	9.0824	111.5339	-23.9504	2.4088	
8.4830	-7.9222	2.8279	-22.2157	0.0000	1.2500	-0.0000	78.6986	-11.5098	1.5829	78.8192	4.0081	-13.5176	0.0000	47.5012	-13.1870	-11.6888	64.9038	-16.1953	17.1485	-0.0000	-20.8615	0.2763	-0.3023	98.2265	-12.2675	48.3476	3.7545	115.2816	-39.5021	-5.8349	85.0910	-22.1479	55.0587	9.0106	111.4663	-23.8560	2.4058	
8.5000	-7.7654	3.0407	-22.1832	0.0000	1.2500	-0.0000	75.1459	-11.9544	-0.0769	74.1768	4.9220	-12.9790	0.0000	49.7393	-13.3446	-11.1063	69.6911	-15.7196	17.7953	0.0000	-20.8652	0.0597	-0.4053	97.9391	-12.0948	48.1071	3.6185	115.1337	-39.3196	-5.7790	85.0978	-22.1507	55.3126	8.9689	111.4818	-23.7892	2.4160	
8.5160	-7.6077	3.2493	-21.9120	0.0000	1.2500	-0.0000	71.1381	-12.5169	-2.1018	69.1535	5.4039	-12.4481	0.0000	52.2066	-13.3678	-10.7613	74.5939	-14.9905	18.5461	0.0000	-20.8647	-0.1052	-0.5271	97.5269	-12.0907	47.8174	3.5481	115.1361	-39.2863	-5.8573	85.0197	-21.9928	55.3525	8.9996	111.6186	-23.8122	2.4461	
8.5330	-7.4498	3.4604	-21.4591	0.0000	1.2500	-0.0000	66.7177	-13.0779	-4.4160	63.8610	5.5994	-11.9364	-0.0000	54.8890	-13.3011	-10.5402	79.5412	-14.1506	19.3556	0.0000	-20.8514	-0.2351	-0.6794	97.0117	-12.1938	47.4841	3.5295	115.2375	-39.3641	-6.0373	84.8869	-21.7192	55.2691	9.0602	111.8385	-23.8627	2.4895	
8.5500	-7.3421	3.6510	-20.8851	0.0000	1.2500	-0.0000	62.3498	-13.5339	-6.4788	58.6946	5.2376	-11.5495	-0.0000	57.7773	-13.2108	-10.0742	84.1320	-13.3979	19.9606	0.0000	-20.8013	-0.3280	-0.8909	96.4643	-12.3808	47.2126	3.5567	115.3305	-39.5375	-6.3130	84.7518	-21.3866	55.1599	9.1073	112.1065	-23.8561	2.5423	
8.5660	-7.3094	3.7993	-20.1758	0.0000	1.2500	-0.0000	58.1095	-13.9267	-8.0976	53.6821	4.1504	-11.3938	-0.0000	60.9449	-13.0946	-9.2043	88.2414	-12.8906	20.3041	0.0000	-20.7003	-0.3745	-1.1859	95.8981	-12.6448	47.0325	3.6202	115.4023	-39.8337	-6.7235	84.6127	-20.9983	55.0809	9.1252	112.4100	-23.7498	2.5912	
8.5830	-7.3268	3.9288	-19.3447	0.0000	1.2500	-0.0000	53.9230	-14.2653	-9.4728	48.8118	2.5126	-11.3598	0.0000	64.3209	-12.8878	-8.1151	91.9614	-12.4802	20.4533	0.0000	-20.5629	-0.3858	-1.5412	95.2977	-12.9915	46.9114	3.7294	115.4655	-40.2276	-7.2299	84.4709	-20.5509	54.9765	9.1289	112.7616	-23.5868	2.6488	
8.6000	-7.3709	4.0861	-18.4939	0.0000	1.2500	-0.0000	50.0436	-14.5013	-10.6060	44.4258	0.5677	-11.2227	0.0000	67.6839	-12.5608	-6.9386	95.1971	-11.9029	20.3304	0.0000	-20.4078	-0.3909	-1.9137	94.6918	-13.4181	46.8624	3.9071	115.4515	-40.6235	-7.7092	84.3831	-20.0911	54.7754	9.1217	113.1650	-23.4102	2.7504	
8.6160	-7.4413	4.2985	-17.6169	0.0000	1.2500	-0.0000	46.5365	-14.6746	-11.4038	40.5546	-1.8877	-10.7647	0.0000	71.0335	-12.1055	-5.5938	97.9444	-10.9871	19.8182	0.0000	-20.2220	-0.3974	-2.3109	94.0637	-13.9814	46.9025	4.1948	115.3323	-41.0097	-8.1378	84.3802	-19.6284	54.4164	9.1047	113.6459	-23.2146	2.9280	
8.6330	-7.5366	4.5400	-16.7196	0.0000	1.2500	-0.0000	43.3364	-14.8217	-11.9413	37.1667	-4.6559	-10.1811	0.0000	74.3648	-11.5206	-4.1847	100.2126	-9.8765	19.0171	-0.0000	-20.0180	-0.3989	-2.7255	93.4288	-14.6253	47.0112	4.5525	115.1358	-41.3967	-8.5377	84.4330	-19.1524	53.9606	9.0766	114.1785	-23.0055	3.1499	
8.6500	-7.6328	4.7765	-15.9239	0.0000	1.2500	-0.0000	40.5142	-14.8970	-12.4428	34.5089	-6.8872	-9.8854	0.0000	77.4469	-10.8518	-3.0929	101.9271	-8.7840	18.1733	0.0000	-19.8520	-0.4006	-3.0917	92.8671	-15.1795	47.1499	4.8805	114.8768	-41.7203	-8.8555	84.5080	-18.6792	53.5195	9.0382	114.6897	-22.8428	3.3560	
8.6660	-7.7223	5.0038	-15.2555	0.0000	1.2500	-0.0000	38.0438	-14.8972	-12.9830	32.6033	-8.3344	-10.1342	-0.0000	80.2589	-10.1186	-2.4746	103.0857	-7.7072	17.3202	0.0000	-19.7371	-0.4011	-3.3941	92.3826	-15.5909	47.3320	5.1435	114.5212	-41.9546	-9.0683	84.5882	-18.1722	53.0832	8.9676	115.2076	-22.7544	3.5278	
8.6830	-7.8143	5.2255	-14.6887	0.0000	1.2500	-0.0000	35.9587	-14.8576	-13.4566	31.4261	-9.2463	-10.6897	0.0000	82.8235	-9.3690	-2.1455	103.6924	-6.6289	16.4077	0.0000	-19.6590	-0.3988	-3.6476	91.9759	-15.9149	47.5493	5.3758	114.1029	-42.1250	-9.2003	84.6915	-17.6677	52.6619	8.8910	115.7050	-22.7121	3.6841	
8.7000	-7.9112	5.4174	-14.2695	0.0000	1.2500	-0.0000	34.4256	-14.7861	-13.8032	31.1535	-9.5089	-11.2414	0.0000	84.9796	-8.7149	-1.9383	103.6727	-5.7739	15.5761	-0.0000	-19.6331	-0.3961	-3.8322	91.7237	-16.1451	47.7345	5.5809	113.7384	-42.2440	-9.2700	84.8336	-17.2929	52.3962	8.8800	116.0260	-22.6911	3.8206	
8.7160	-8.0204	5.5958	-14.0193	0.0000	1.2500	-0.0000	33.5102	-14.6977	-14.0281	31.8670	-8.9780	-11.6498	0.0000	86.7358	-8.1918	-1.7487	102.9447	-5.2882	14.8815	-0.0000	-19.6760	-0.3990	-3.9385	91.6766	-16.2774	47.8624	5.7613	113.4855	-42.3103	-9.2696	85.0259	-17.1131	52.3533	8.9841	116.0872	-22.6822	3.9381	
8.7330	-8.1363	5.7437	-13.9170	0.0000	1.2500	-0.0000	33.1462	-14.6070	-14.1128	33.4844	-7.7965	-12.0664	0.0000	88.0917	-7.7739	-1.6345	101.5874	-5.0467	14.2805	-0.0000	-19.7708	-0.4005	-3.9759	91.7846	-16.3170	47.9591	5.9136	113.2865	-42.3252	-9.2070	85.2557	-17.0633	52.4649	9.1508	115.9711	-22.6944	4.0360	
8.7500	-8.2423	5.7862	-13.9453	0.0000	1.2500	-0.0000	33.3010	-14.5202	-13.9623	35.9383	-6.2728	-12.6089	-0.0000	88.8728	-7.4670	-1.6617	99.7618	-4.8923	13.7849	0.0000	-19.8840	-0.3848	-3.9525	91.9736	-16.2706	48.0329	6.0329	113.0841	-42.3051	-9.1236	85.5016	-17.0746	52.6683	9.2964	115.7711	-22.7292	4.1082	
8.7660	-8.3414	5.6814	-14.1246	0.0000	1.2500	-0.0000	34.0237	-14.4148	-13.4924	39.3572	-4.2912	-13.4475	0.0000	89.0282	-7.2699	-1.8352	97.4832	-4.7935	13.3481	-0.0000	-20.0128	-0.3412	-3.8574	92.2716	-16.1586	48.1280	6.1240	112.8101	-42.2496	-9.0147	85.7740	-17.1356	52.9927	9.4101	115.4781	-22.8040	4.1482	
8.7830	-8.4299	5.4703	-14.4353	0.0000	1.2500	-0.0000	35.2648	-14.2969	-12.7958	43.6122	-1.9604	-14.4073	0.0000	88.6119	-7.1818	-2.1401	94.7259	-4.7984	13.0293	-0.0000	-20.1602	-0.2822	-3.7009	92.6498	-15.9603	48.1983	6.1818	112.5328	-42.1591	-8.8848	86.0630	-17.2580	53.4098	9.5020	115.1015	-22.9014	4.1628	
8.8000	-8.4799	5.2031	-14.8003	0.0000	1.2500	-0.0000	36.8451	-14.2130	-12.0424	48.2521	0.0643	-15.0808	0.0000	87.6055	-7.2054	-2.6209	91.5866	-4.8796	13.0108	-0.0000	-20.3011	-0.2264	-3.5225	92.9488	-15.6213	48.1177	6.1874	112.3997	-42.0513	-8.7902	86.3161	-17.4076	53.7706	9.5203	114.7626	-22.9717	4.1653	
8.8160	-8.4741	4.8670	-15.2146	0.0000	1.2500	-0.0000	38.7484	-14.1665	-11.2893	53.2436	1.5302	-15.2828	-0.0000	85.9516	-7.3595	-3.3573	88.0493	-4.9929	13.4185	0.0000	-20.4325	-0.1754	-3.3282	93.0965	-15.0520	47.7851	6.1069	112.4800	-41.9148	-8.7460	86.5316	-17.5710	54.0128	9.4154	114.5184	-22.9804	4.1635	
